<?xml version="1.0" encoding="UTF-8"?><svg id="Capa_1" xmlns="http://www.w3.org/2000/svg" xmlns:xlink="http://www.w3.org/1999/xlink" viewBox="0 0 1163.35 664.07"><defs><style>.cls-1{fill:url(#linear-gradient-3);stroke-width:0px;}.cls-2{fill:url(#linear-gradient);stroke:url(#linear-gradient-2);stroke-miterlimit:10;}</style><linearGradient id="linear-gradient" x1="336.71" y1="47.97" x2="884.88" y2="596.14" gradientUnits="userSpaceOnUse"><stop offset=".04" stop-color="#e52000"/><stop offset=".18" stop-color="#e52478"/><stop offset=".34" stop-color="#e62aff"/><stop offset=".46" stop-color="#e62aff"/><stop offset=".59" stop-color="#b11eee"/><stop offset=".85" stop-color="#4808cc"/><stop offset=".97" stop-color="#1e00bf"/></linearGradient><linearGradient id="linear-gradient-2" x1="198.23" y1="332.04" x2="909.12" y2="332.04" gradientUnits="userSpaceOnUse"><stop offset="0" stop-color="#bf2000"/><stop offset=".51" stop-color="#e62aff"/><stop offset=".63" stop-color="#b11eee"/><stop offset=".89" stop-color="#4808cc"/><stop offset="1" stop-color="#1e00bf"/></linearGradient><linearGradient id="linear-gradient-3" x1="520.81" y1="268.18" x2="1008.46" y2="755.83" xlink:href="#linear-gradient"/></defs><path class="cls-2" d="M376.28,313.58c8.08,0,14.63,6.55,14.63,14.63s-6.55,14.63-14.63,14.63c-46.81,0-90.29-25.29-113.48-66-4-7.02-1.55-15.95,5.47-19.95,7.02-4,15.95-1.55,19.95,5.47,18,31.6,51.75,51.23,88.07,51.23ZM375.47,454v105.69c0,8.08,6.55,14.63,14.63,14.63s14.63-6.55,14.63-14.63v-105.69c0-8.08-6.55-14.63-14.63-14.63s-14.63,6.55-14.63,14.63ZM592.57,328.21c0,8.08,6.55,14.63,14.63,14.63,26.71,0,52.4-8.02,74.29-23.19,6.64-4.6,8.29-13.71,3.69-20.35-4.6-6.64-13.72-8.29-20.35-3.69-16.97,11.76-36.89,17.98-57.62,17.98-8.08,0-14.63,6.55-14.63,14.63ZM668.56,437.99c-8.08,0-14.63,6.55-14.63,14.63v140.73c-2.86,3.05-15.28,10.53-47.45,16.95-30.46,6.07-69.66,9.42-110.39,9.42s-79.93-3.35-110.39-9.42c-32.17-6.41-44.59-13.9-47.45-16.95v-187.42c5.5.59,11.09.89,16.75.89,35.6,0,70.44-12.3,98.09-34.63,6.28-5.07,7.27-14.28,2.19-20.57-5.07-6.28-14.28-7.27-20.57-2.19-22.79,18.4-50.36,28.13-79.71,28.13-70.03,0-127.01-56.98-127.01-127.01s56.98-127.01,127.01-127.01c4.01,0,8.12.2,12.22.59,6.09.58,11.88-2.68,14.54-8.17,21.45-44.18,65.26-71.62,114.32-71.62s92.88,27.44,114.33,71.62c2.67,5.49,8.47,8.75,14.54,8.17,4.1-.39,8.21-.59,12.22-.59,8.08,0,14.63-6.55,14.63-14.63s-6.55-14.63-14.63-14.63c-1.68,0-3.38.03-5.08.08-12.56-22.17-30.38-40.98-51.97-54.78-25.08-16.03-54.14-24.5-84.04-24.5s-58.95,8.47-84.04,24.51c-21.6,13.8-39.41,32.61-51.97,54.78-1.7-.06-3.4-.08-5.08-.08-86.16,0-156.26,70.1-156.26,156.26,0,70.16,46.48,129.67,110.26,149.35v194.95c0,18.85,20.24,32.64,61.88,42.17,33.62,7.69,78.08,11.93,125.22,11.93s91.6-4.24,125.22-11.93c41.64-9.53,61.88-23.33,61.88-42.17v-142.24c0-8.08-6.55-14.63-14.63-14.63ZM828.66,78.12c-8.08,0-14.63,6.55-14.63,14.63v105.69c0,8.08,6.55,14.63,14.63,14.63s14.63-6.55,14.63-14.63v-105.69c0-8.08-6.55-14.63-14.63-14.63ZM717.81,348.7c-22.63,18.61-51.26,28.87-80.63,28.87s-56.92-9.73-79.71-28.13c-6.28-5.07-15.49-4.09-20.57,2.19-5.07,6.28-4.09,15.49,2.19,20.57,27.66,22.33,62.49,34.62,98.09,34.62s71.36-12.62,99.21-35.53c6.24-5.13,7.14-14.35,2-20.59-5.13-6.24-14.35-7.14-20.59-2ZM908.62,42.51v203.15c0,28.31-45.53,42.38-94.78,44.68v218.47c17.13,6.05,29.43,22.39,29.43,41.56v69.14c0,24.29-19.77,44.06-44.06,44.06s-44.06-19.76-44.06-44.06v-69.14c0-19.17,12.31-35.52,29.43-41.56v-218.47c-49.24-2.3-94.78-16.37-94.78-44.68V42.51c0-3.35,1.13-6.45,3.03-8.91C705.76,9.27,757.16.5,799.22.5s93.43,8.77,106.36,33.08c1.91,2.47,3.04,5.57,3.04,8.93ZM799.22,535.57h0c-8.16,0-14.8,6.64-14.8,14.81v69.14c0,8.16,6.64,14.8,14.8,14.8s14.81-6.64,14.81-14.8v-69.14c0-8.16-6.64-14.81-14.81-14.81ZM879.37,46.76c-4.5-5.41-31.9-17.01-80.15-17.01s-75.63,11.59-80.15,17v197.68c4.53,5.42,31.92,17,80.15,17s75.62-11.58,80.15-17V46.76ZM769.77,78.12c-8.08,0-14.63,6.55-14.63,14.63v105.69c0,8.08,6.55,14.63,14.63,14.63s14.63-6.55,14.63-14.63v-105.69c0-8.08-6.55-14.63-14.63-14.63Z"/><path class="cls-1" d="M59.97,333.39v-8.7c53.65-5.44,79.91-32.83,79.91-85.41v-95.93c0-58.4,20.82-82.1,72.28-82.1h14.57V9.73h-20.07c-86.05,0-126.62,40.52-126.62,125.56v81.35c0,58.4-20.07,77.72-79.54,77.72v69.34c59.47,0,79.54,19.32,79.54,77.72v81.35c0,85.04,40.52,125.56,126.62,125.56h20.07v-51.46h-14.57c-51.46,0-72.28-23.7-72.28-82.1v-95.98c0-52.53-26.26-79.91-79.91-85.41M1103.39,324.69v8.7c-53.65,5.5-79.91,32.88-79.91,85.41v95.98c0,58.4-20.82,82.1-72.28,82.1h-14.57v51.46h20.07c86.11,0,126.62-40.52,126.62-125.56v-81.35c0-58.4,20.07-77.72,79.54-77.72v-69.34c-59.47,0-79.54-19.32-79.54-77.72v-81.35c0-85.04-40.57-125.56-126.62-125.56h-20.07v51.46h14.57c51.46,0,72.28,23.7,72.28,82.1v95.98c0,52.53,26.26,79.91,79.91,85.41"/></svg>